<svg width="86" height="74" viewBox="0 0 86 74" fill="none" xmlns="http://www.w3.org/2000/svg">
<path d="M39.085 49.867C33.309 49.62 27.629 47.153 23.458 42.532C15.214 33.391 15.94 19.247 25.079 11C34.218 2.75201 48.364 3.47901 56.611 12.62C60.781 17.243 62.652 23.146 62.305 28.918L66.541 25.096C66.031 19.572 63.802 14.16 59.809 9.73501C49.972 -1.16999 33.098 -2.03699 22.193 7.80001C11.289 17.64 10.423 34.513 20.26 45.417C24.254 49.843 29.407 52.615 34.851 53.688L39.085 49.867Z" fill="#1CBBFF"/>
<path d="M81.417 36.307L81.09 36.602L72.542 29.959C73.194 29.041 73.149 27.764 72.363 26.892C71.451 25.883 69.896 25.802 68.887 26.713L36.445 55.981C35.437 56.891 35.357 58.449 36.268 59.459C37.052 60.33 38.318 60.503 39.299 59.951L45.03 69.135L44.704 69.429C43.695 70.34 43.617 71.897 44.527 72.907C45.436 73.916 46.994 73.994 48.002 73.084L84.713 39.965C85.723 39.053 85.804 37.497 84.893 36.486C83.981 35.476 82.426 35.397 81.417 36.307Z" fill="#1CBBFF"/>
<path d="M32.025 13.43C33.0451 13.43 33.872 12.6031 33.872 11.583C33.872 10.563 33.0451 9.73602 32.025 9.73602C31.0049 9.73602 30.178 10.563 30.178 11.583C30.178 12.6031 31.0049 13.43 32.025 13.43Z" fill="white"/>
<path d="M32.973 38.157C33.9925 38.157 34.819 37.3305 34.819 36.311C34.819 35.2915 33.9925 34.465 32.973 34.465C31.9535 34.465 31.127 35.2915 31.127 36.311C31.127 37.3305 31.9535 38.157 32.973 38.157Z" fill="white"/>
<path d="M50.309 13.495C50.796 14.034 50.752 14.861 50.216 15.344C49.68 15.829 48.851 15.786 48.365 15.249C47.884 14.713 47.924 13.885 48.461 13.4C48.998 12.915 49.828 12.959 50.309 13.495Z" fill="white"/>
<path d="M22.31 29.741C22.8623 29.741 23.31 29.2933 23.31 28.741C23.31 28.1887 22.8623 27.741 22.31 27.741C21.7577 27.741 21.31 28.1887 21.31 28.741C21.31 29.2933 21.7577 29.741 22.31 29.741Z" fill="white"/>
<path d="M31.194 28.616C31.775 28.616 32.246 28.145 32.246 27.564C32.246 26.983 31.775 26.512 31.194 26.512C30.613 26.512 30.142 26.983 30.142 27.564C30.142 28.145 30.613 28.616 31.194 28.616Z" fill="white"/>
<path d="M41.252 18.662C41.6911 18.662 42.047 18.3061 42.047 17.867C42.047 17.428 41.6911 17.072 41.252 17.072C40.813 17.072 40.457 17.428 40.457 17.867C40.457 18.3061 40.813 18.662 41.252 18.662Z" fill="white"/>
<path d="M54.685 23.542C55.1241 23.542 55.48 23.1861 55.48 22.747C55.48 22.308 55.1241 21.952 54.685 21.952C54.246 21.952 53.89 22.308 53.89 22.747C53.89 23.1861 54.246 23.542 54.685 23.542Z" fill="white"/>
<path d="M41.416 10.675C41.8556 10.675 42.212 10.3186 42.212 9.87901C42.212 9.43939 41.8556 9.08301 41.416 9.08301C40.9764 9.08301 40.62 9.43939 40.62 9.87901C40.62 10.3186 40.9764 10.675 41.416 10.675Z" fill="white"/>
<path d="M37.358 13.541C37.7965 13.541 38.152 13.1855 38.152 12.747C38.152 12.3085 37.7965 11.953 37.358 11.953C36.9195 11.953 36.564 12.3085 36.564 12.747C36.564 13.1855 36.9195 13.541 37.358 13.541Z" fill="white"/>
<path d="M24.168 23.023C24.6065 23.023 24.962 22.6675 24.962 22.229C24.962 21.7905 24.6065 21.435 24.168 21.435C23.7295 21.435 23.374 21.7905 23.374 22.229C23.374 22.6675 23.7295 23.023 24.168 23.023Z" fill="white"/>
<path d="M25.1 35.791C25.5391 35.791 25.895 35.4351 25.895 34.996C25.895 34.5569 25.5391 34.201 25.1 34.201C24.6609 34.201 24.305 34.5569 24.305 34.996C24.305 35.4351 24.6609 35.791 25.1 35.791Z" fill="white"/>
<path d="M33.126 43.414C33.6639 43.414 34.1 42.9779 34.1 42.44C34.1 41.9021 33.6639 41.466 33.126 41.466C32.5881 41.466 32.152 41.9021 32.152 42.44C32.152 42.9779 32.5881 43.414 33.126 43.414Z" fill="white"/>
<path d="M47.539 21.811C48.0946 21.811 48.545 21.3606 48.545 20.805C48.545 20.2494 48.0946 19.799 47.539 19.799C46.9834 19.799 46.533 20.2494 46.533 20.805C46.533 21.3606 46.9834 21.811 47.539 21.811Z" fill="white"/>
<path d="M30.803 17.314L33.236 18.28L35.413 16.824L35.246 19.438L37.304 21.057L34.765 21.705L33.86 24.163L32.461 21.949L29.845 21.851L31.515 19.833L30.803 17.314Z" fill="#FFD337"/>
<path d="M42.927 46.401L58.467 32.38C58.995 30.289 59.162 28.119 58.96 25.973C56.718 26.688 54.291 27.861 51.832 29.416L47.688 28.342L48.886 27.258L41.982 25.47L43.284 24.293L35.766 22.816L36.465 30.448L37.768 29.272L38.838 36.325L40.039 35.242L40.686 39.5C38.896 41.791 37.49 44.092 36.562 46.25C38.657 46.658 40.813 46.709 42.927 46.401ZM44.316 28.903C44.676 28.578 45.233 28.607 45.558 28.968C45.884 29.329 45.855 29.885 45.494 30.209C45.134 30.536 44.577 30.507 44.251 30.147C43.928 29.786 43.955 29.23 44.316 28.903ZM38.912 25.542C39.273 25.217 39.829 25.247 40.156 25.607C40.481 25.967 40.45 26.524 40.091 26.849C39.731 27.175 39.173 27.144 38.849 26.785C38.522 26.423 38.552 25.867 38.912 25.542ZM39.79 29.673C40.15 29.347 40.706 29.375 41.032 29.736C41.357 30.097 41.33 30.654 40.969 30.979C40.608 31.305 40.051 31.277 39.725 30.916C39.4 30.553 39.428 29.999 39.79 29.673ZM41.824 34.236C42.183 33.912 42.74 33.939 43.066 34.299C43.391 34.661 43.364 35.217 43.002 35.545C42.642 35.868 42.084 35.84 41.759 35.481C41.434 35.119 41.464 34.562 41.824 34.236Z" fill="#00F227"/>
<path d="M5.65601 45.448C4.96101 45.448 4.29801 45.053 3.98401 44.385C1.31001 38.665 0.127005 32.296 0.560005 25.966C0.630005 24.949 1.516 24.185 2.527 24.249C3.54601 24.319 4.312 25.201 4.244 26.217C3.853 31.927 4.92001 37.667 7.33001 42.82C7.76001 43.743 7.361 44.842 6.438 45.274C6.186 45.394 5.91901 45.448 5.65601 45.448Z" fill="#1CBBFF"/>
<path d="M10.763 41.994C10.094 41.994 9.448 41.63 9.119 40.993C7.195 37.245 6.248 33.025 6.379 28.791C6.411 27.772 7.268 26.958 8.281 27.003C9.301 27.034 10.101 27.888 10.069 28.906C9.957 32.516 10.763 36.113 12.401 39.305C12.869 40.211 12.511 41.323 11.606 41.789C11.335 41.929 11.047 41.994 10.763 41.994Z" fill="#1CBBFF"/>
<path d="M74.854 20.766C74.021 20.766 73.264 20.198 73.061 19.352C71.773 14.004 69.145 8.99102 65.465 4.85002C65.029 4.36202 64.579 3.88502 64.128 3.43302C63.409 2.71102 63.411 1.54202 64.132 0.82202C64.854 0.10102 66.024 0.10502 66.743 0.82502C67.242 1.32702 67.742 1.85602 68.223 2.39802C72.307 6.98902 75.219 12.552 76.649 18.487C76.888 19.479 76.279 20.475 75.288 20.714C75.144 20.749 74.997 20.766 74.854 20.766Z" fill="#1CBBFF"/>
</svg>
